<mxfile host="Electron" modified="2023-07-30T14:44:43.658Z" agent="Mozilla/5.0 (Windows NT 10.0; Win64; x64) AppleWebKit/537.36 (KHTML, like Gecko) draw.io/21.6.5 Chrome/114.0.5735.243 Electron/25.3.1 Safari/537.36" etag="NB4MO-OQ-gBk2koYeu0u" version="21.6.5" type="device">
  <diagram name="Page-1" id="iVKCL4uKUBTiV6Z-jCml">
    <mxGraphModel dx="864" dy="495" grid="1" gridSize="10" guides="1" tooltips="1" connect="1" arrows="1" fold="1" page="1" pageScale="1" pageWidth="1169" pageHeight="827" math="0" shadow="0">
      <root>
        <mxCell id="0" />
        <mxCell id="1" parent="0" />
        <mxCell id="L23wMsZLqWfUm6GQSvft-9" value="Auxilary" style="shape=folder;fontStyle=1;tabWidth=50;tabHeight=20;tabPosition=left;html=1;boundedLbl=1;whiteSpace=wrap;" vertex="1" parent="1">
          <mxGeometry x="10" width="140" height="70" as="geometry" />
        </mxCell>
        <mxCell id="L23wMsZLqWfUm6GQSvft-10" value="Types" style="shape=folder;fontStyle=1;tabWidth=50;tabHeight=20;tabPosition=left;html=1;boundedLbl=1;whiteSpace=wrap;" vertex="1" parent="1">
          <mxGeometry x="10" y="90" width="140" height="70" as="geometry" />
        </mxCell>
        <mxCell id="L23wMsZLqWfUm6GQSvft-11" value="ShoppingCart" style="shape=folder;fontStyle=1;tabWidth=50;tabHeight=20;tabPosition=left;html=1;boundedLbl=1;whiteSpace=wrap;" vertex="1" parent="1">
          <mxGeometry x="240" y="50" width="140" height="70" as="geometry" />
        </mxCell>
        <mxCell id="L23wMsZLqWfUm6GQSvft-12" value="WebShop" style="shape=folder;fontStyle=1;tabWidth=50;tabHeight=20;tabPosition=left;html=1;boundedLbl=1;whiteSpace=wrap;" vertex="1" parent="1">
          <mxGeometry x="470" y="50" width="140" height="70" as="geometry" />
        </mxCell>
        <mxCell id="L23wMsZLqWfUm6GQSvft-13" value="«import»" style="endArrow=open;startArrow=none;endFill=0;startFill=0;endSize=8;html=1;verticalAlign=bottom;dashed=1;labelBackgroundColor=none;rounded=0;exitX=0;exitY=0;exitDx=0;exitDy=45;exitPerimeter=0;entryX=0;entryY=0;entryDx=140;entryDy=45;entryPerimeter=0;" edge="1" parent="1" source="L23wMsZLqWfUm6GQSvft-12" target="L23wMsZLqWfUm6GQSvft-11">
          <mxGeometry width="160" relative="1" as="geometry">
            <mxPoint x="360" y="240" as="sourcePoint" />
            <mxPoint x="520" y="240" as="targetPoint" />
          </mxGeometry>
        </mxCell>
        <mxCell id="L23wMsZLqWfUm6GQSvft-14" value="«access»" style="endArrow=open;startArrow=none;endFill=0;startFill=0;endSize=8;html=1;verticalAlign=bottom;dashed=1;labelBackgroundColor=none;rounded=0;exitX=0;exitY=0;exitDx=0;exitDy=45;exitPerimeter=0;entryX=0;entryY=0;entryDx=140;entryDy=45;entryPerimeter=0;" edge="1" parent="1" source="L23wMsZLqWfUm6GQSvft-11" target="L23wMsZLqWfUm6GQSvft-9">
          <mxGeometry x="0.0094" y="-11" width="160" relative="1" as="geometry">
            <mxPoint x="360" y="240" as="sourcePoint" />
            <mxPoint x="520" y="240" as="targetPoint" />
            <mxPoint as="offset" />
          </mxGeometry>
        </mxCell>
        <mxCell id="L23wMsZLqWfUm6GQSvft-15" value="«import»" style="endArrow=open;startArrow=none;endFill=0;startFill=0;endSize=8;html=1;verticalAlign=bottom;dashed=1;labelBackgroundColor=none;rounded=0;exitX=0;exitY=0;exitDx=0;exitDy=45;exitPerimeter=0;entryX=0;entryY=0;entryDx=140;entryDy=45;entryPerimeter=0;" edge="1" parent="1" source="L23wMsZLqWfUm6GQSvft-11" target="L23wMsZLqWfUm6GQSvft-10">
          <mxGeometry x="0.1134" y="25" width="160" relative="1" as="geometry">
            <mxPoint x="360" y="240" as="sourcePoint" />
            <mxPoint x="520" y="240" as="targetPoint" />
            <mxPoint as="offset" />
          </mxGeometry>
        </mxCell>
      </root>
    </mxGraphModel>
  </diagram>
</mxfile>
